<?xml version="1.0" encoding="utf-8"?>
<!-- Generator: Adobe Illustrator 24.3.0, SVG Export Plug-In . SVG Version: 6.00 Build 0)  -->
<svg version="1.1" id="Layer_1" xmlns="http://www.w3.org/2000/svg" xmlns:xlink="http://www.w3.org/1999/xlink" x="0px" y="0px"
	 viewBox="0 0 1075.8 299.2" style="enable-background:new 0 0 1075.8 299.2;" xml:space="preserve">
<style type="text/css">
	.st0{fill:none;}
	.st1{fill:#00235A;}
	.st2{fill:#FFFFFF;}
</style>
<rect class="st0" width="1075.8" height="299.2"/>
<g>
	<g>
		<rect x="59.5" y="16.5" class="st2" width="98.3" height="24.2"/>
		<rect x="59.5" y="258.5" class="st2" width="98.3" height="24.2"/>
		<path class="st2" d="M190.8,92.2c0.9-1,1.8-1.9,2.7-2.9c-3.1-7.1-6.1-14.3-9.2-21.4c-48.9,0-97.8,0-146.7,0
			c-4,3.9-8.1,7.8-12.1,11.6c0,49.3,0,98.6,0,147.9c6.8,2.9,13.6,5.8,20.4,8.6c1.3-1.2,2.5-2.3,3.8-3.5
			c20.4-20.3,40.8-40.6,61.2-60.9l65.1,65.1l17.1-17.1l-65-65C149,133.8,169.9,113,190.8,92.2z M49.7,194.8c0-34.2,0-68.4,0-102.6
			c33.8,0,67.5,0,101.3,0c1.2,0.1,2.1,0.7,2.2,1.5c0,0.1,0,0.5-0.2,1C119.6,128,86.2,161.4,52.8,194.8c-0.9,1-2,1.2-2.6,0.8
			C50.1,195.5,49.9,195.3,49.7,194.8z"/>
	</g>
	<g>
		<path class="st2" d="M229.7,68.2h24.2v169.4h-24.2V68.2z"/>
		<path class="st2" d="M431.3,216.6v21.1H289.7v-16.5L396.2,89.2H291.4V68.2h136.8v16.5l-106,131.9H431.3z"/>
		<path class="st2" d="M703.2,68.2l-56.6,169.4h-25.4l-46.2-135.3l-46.2,135.3h-25.9L446.1,68.2H471l45.8,137.7l47.7-137.7h22.3
			l46.7,138.5l46.7-138.5H703.2z"/>
		<path class="st2" d="M835.3,195.2h-90l-18.6,42.4h-24.9l76.7-169.4h24l77,169.4H854L835.3,195.2z M826.9,175.9l-36.6-83l-36.6,83
			H826.9z"/>
		<path class="st2" d="M1050.3,68.2v169.4h-19.8L928.8,111.3v126.4h-24.2V68.2h19.8l101.7,126.4V68.2H1050.3z"/>
	</g>
</g>
</svg>
